<svg width="158" height="46" viewBox="0 0 158 46" fill="none" xmlns="http://www.w3.org/2000/svg">
<path d="M53.3647 26.5C53.3647 27.9324 53.3794 29.2668 53.3591 30.6032C53.3462 31.3934 52.8658 31.9799 52.173 32.1356C51.4728 32.2933 50.7486 31.9645 50.4512 31.3031C50.3385 31.0512 50.2868 30.7474 50.2868 30.4686C50.2775 26.1769 50.2738 21.8872 50.2849 17.5956C50.2868 16.5554 50.8909 15.9343 51.8996 15.9209C53.3166 15.9016 54.7337 15.8767 56.1488 15.9247C58.9441 16.0209 61.1186 18.4589 61.0594 21.3719C61.0022 24.2196 58.7298 26.4923 55.9308 26.5019C55.1216 26.5019 54.3124 26.5 53.3647 26.5ZM53.4072 23.8119C54.2274 23.8119 54.9868 23.8696 55.7331 23.7985C57.0135 23.6773 57.9834 22.566 58.0203 21.2777C58.0573 20.0452 57.1668 18.8589 55.9123 18.6724C55.105 18.5512 54.2681 18.6493 53.4053 18.6493C53.4072 20.3759 53.4072 22.0487 53.4072 23.8119Z" fill="#373737"/>
<path d="M65.5248 21.9044C66.0274 21.4102 66.4708 20.9122 66.9751 20.4931C67.4647 20.0854 68.1002 19.9412 68.575 20.4085C68.8946 20.7219 69.133 21.2756 69.1533 21.7352C69.1847 22.3909 68.6508 22.6889 68.0762 22.8715C66.4116 23.4003 65.693 24.3982 65.6689 26.2229C65.6486 27.6419 65.6689 29.0629 65.6634 30.4819C65.6579 31.5317 65.1406 32.1432 64.2649 32.1585C63.3577 32.1739 62.7665 31.5413 62.761 30.48C62.7481 27.5881 62.7518 24.6963 62.7592 21.8025C62.761 20.8123 63.2432 20.2085 64.0302 20.1566C64.808 20.1047 65.3364 20.6411 65.4823 21.6275C65.4953 21.7198 65.5101 21.8102 65.5248 21.9044Z" fill="#373737"/>
<path d="M123.308 21.6796C123.308 20.1049 123.312 18.6705 123.307 17.2361C123.305 16.5843 123.495 16.0478 124.075 15.7248C125.069 15.171 126.207 15.8671 126.211 17.0669C126.226 21.6162 126.22 26.1674 126.213 30.7167C126.211 31.5569 125.67 32.1357 124.921 32.1607C124.147 32.1876 123.615 31.6896 123.512 30.8339C123.49 30.6532 123.482 30.4686 123.464 30.2379C123.026 30.6455 122.647 31.0647 122.209 31.3954C120.687 32.5433 118.786 32.4183 117.408 31.1128C114.904 28.7401 115.004 23.4986 117.594 21.2451C119.318 19.7472 121.263 19.7895 122.924 21.3566C123.011 21.4354 123.103 21.5066 123.308 21.6796ZM118.446 26.2712C118.381 26.2962 118.509 26.2443 118.446 26.2712C118.446 27.3326 118.736 28.1132 119.183 28.8593C119.931 30.1071 121.289 30.1494 122.274 29.0919C123.567 27.7018 123.672 24.881 122.486 23.4005C121.677 22.3911 120.478 22.2949 119.564 23.1967C118.723 24.0293 118.424 25.0906 118.446 26.2712Z" fill="#373737"/>
<path d="M135.079 21.6796C135.079 20.1049 135.082 18.6705 135.077 17.2361C135.075 16.5843 135.265 16.0478 135.845 15.7248C136.839 15.171 137.977 15.8671 137.981 17.0669C137.996 21.6162 137.99 26.1674 137.983 30.7167C137.981 31.5569 137.44 32.1357 136.692 32.1607C135.918 32.1876 135.385 31.6896 135.282 30.8339C135.26 30.6532 135.252 30.4686 135.234 30.2379C134.796 30.6455 134.417 31.0647 133.98 31.3954C132.457 32.5433 130.556 32.4183 129.178 31.1128C126.675 28.7401 126.774 23.4986 129.364 21.2451C131.088 19.7472 133.034 19.7895 134.694 21.3566C134.781 21.4354 134.874 21.5066 135.079 21.6796ZM130.216 26.2712C130.152 26.2962 130.281 26.2443 130.216 26.2712C130.216 27.3326 130.506 28.1132 130.953 28.8593C131.702 30.1071 133.059 30.1494 134.044 29.0919C135.337 27.7018 135.443 24.881 134.257 23.4005C133.447 22.3911 132.248 22.2949 131.334 23.1967C130.493 24.0293 130.194 25.0906 130.216 26.2712Z" fill="#373737"/>
<path d="M84.2305 22.0605C84.4946 21.7413 84.672 21.4856 84.8882 21.276C86.4474 19.7647 88.5868 19.757 90.1609 21.2472C92.7233 23.6737 92.655 28.8286 90.0242 31.1687C88.6773 32.3665 86.4493 32.8222 84.3783 30.6437C84.3524 30.8918 84.3154 31.0783 84.3154 31.2648C84.3099 32.4761 84.3302 33.6856 84.3062 34.8969C84.2896 35.7564 83.715 36.2928 82.8836 36.2967C82.0597 36.3005 81.4408 35.7583 81.4371 34.92C81.4204 30.4457 81.4223 25.9733 81.4352 21.499C81.4371 20.7972 81.9562 20.2512 82.6047 20.1685C83.2587 20.0858 83.8591 20.4877 84.0568 21.1625C84.1288 21.4029 84.1547 21.6567 84.2305 22.0605ZM89.1983 26.1406C89.226 25.1254 88.9489 24.214 88.2894 23.4564C87.4414 22.4816 86.3366 22.4354 85.4147 23.3141C84.0124 24.6524 83.9367 27.4923 85.2669 28.9094C86.222 29.9265 87.4931 29.8804 88.3614 28.7767C88.96 28.0153 89.226 27.1251 89.1983 26.1406Z" fill="#373737"/>
<path d="M111.163 25.0138C111.172 23.5486 110.587 22.6795 109.317 22.6103C108.333 22.5565 107.32 22.7757 106.343 22.9872C105.53 23.1641 104.915 23.0199 104.669 22.3892C104.405 21.7104 104.71 21.0279 105.515 20.7164C107.533 19.9357 109.578 19.8684 111.581 20.7318C113.408 21.5201 114.158 23.0641 114.15 25.0657C114.143 26.8289 114.15 28.5921 114.149 30.3552C114.147 31.5416 113.905 31.9819 113.171 32.1396C112.34 32.3203 111.848 31.9781 111.409 30.8782C109.816 32.0434 108.057 32.4222 106.156 32.0204C104.501 31.6704 103.546 30.6917 103.33 29.1535C103.095 27.4941 103.803 25.9771 105.236 25.1926C106.943 24.26 108.734 24.3023 110.546 24.8061C110.74 24.8638 110.93 24.9349 111.163 25.0138ZM108.257 29.8688C108.281 29.9322 108.235 29.8053 108.257 29.8688C109.227 29.7226 110.016 29.4477 110.83 29.0689C111.523 28.7478 111.25 28.0479 111.189 27.5153C111.152 27.3692 110.976 27.0731 110.83 27.05C109.916 26.9019 108.985 26.6808 108.072 26.7308C106.829 26.7981 106.149 27.5422 106.21 28.4709C106.269 29.3708 106.99 29.863 108.257 29.8688Z" fill="#373737"/>
<path d="M72.5083 27.4478C72.3605 28.9456 74.2523 30.2627 76.0979 29.3475C76.3011 29.2456 76.4803 29.0937 76.6762 28.9745C77.2877 28.5957 77.8863 28.686 78.2983 29.2129C78.6936 29.7205 78.6678 30.4127 78.1745 30.9261C77.3856 31.749 76.3769 32.0836 75.2924 32.1509C71.3573 32.3932 68.8447 29.2302 69.5578 24.9559C70.0289 22.1313 72.0889 20.2143 74.6901 20.1797C77.3376 20.1432 79.6285 22.089 80.1365 24.8251C80.2067 25.2078 80.2233 25.6115 80.1956 25.9999C80.1217 27.0209 79.6691 27.4439 78.6862 27.4478C76.6411 27.4497 74.5959 27.4478 72.5083 27.4478ZM77.3265 25.4923C77.3542 23.9483 76.1515 22.6774 74.7252 22.7082C73.3489 22.7389 72.2514 24.0137 72.3512 25.4923C74.0103 25.4923 75.6693 25.4923 77.3265 25.4923Z" fill="#373737"/>
<path d="M142.195 27.4478C142.079 29.0302 144.067 30.2723 145.87 29.3129C145.937 29.2764 145.996 29.2264 146.06 29.1841C146.984 28.5745 147.657 28.6284 148.083 29.3475C148.492 30.032 148.209 30.805 147.339 31.3837C143.882 33.6853 139.459 31.226 139.151 26.8287C138.935 23.7388 140.472 21.1546 142.975 20.4008C146.402 19.3683 149.986 22.1486 149.901 25.7731C149.874 26.9786 149.426 27.4459 148.294 27.4478C146.273 27.4497 144.252 27.4478 142.195 27.4478ZM142.033 25.4654C143.701 25.4654 145.371 25.4654 147.041 25.4654C146.98 23.8561 145.772 22.6351 144.37 22.7082C143.019 22.7793 141.972 24.008 142.033 25.4654Z" fill="#373737"/>
<path d="M96.6882 29.1342C98.3306 29.1342 99.8659 29.1419 101.401 29.1304C102.12 29.1246 102.641 29.4073 102.813 30.1629C103.003 30.9993 102.469 31.778 101.603 31.7954C99.4299 31.8396 97.2554 31.8415 95.0846 31.7915C94.159 31.7704 93.6084 31.0974 93.6047 30.1322C93.5937 25.8194 93.5937 21.5066 93.6047 17.1919C93.6066 16.1978 94.268 15.5364 95.1696 15.546C96.0656 15.5575 96.679 16.217 96.6827 17.24C96.6937 20.8702 96.6864 24.4984 96.6882 28.1286C96.6882 28.4363 96.6882 28.7439 96.6882 29.1342Z" fill="#373737"/>
<path d="M154.37 21.9044C154.873 21.4102 155.316 20.9122 155.821 20.4931C156.31 20.0854 156.946 19.9412 157.42 20.4085C157.74 20.7219 157.978 21.2756 157.999 21.7352C158.03 22.3909 157.496 22.6889 156.922 22.8715C155.257 23.4003 154.538 24.3982 154.514 26.2229C154.494 27.6419 154.514 29.0629 154.509 30.4819C154.503 31.5317 153.986 32.1432 153.11 32.1585C152.203 32.1739 151.612 31.5413 151.606 30.48C151.594 27.5881 151.597 24.6963 151.605 21.8025C151.606 20.8123 152.089 20.2085 152.876 20.1566C153.653 20.1047 154.182 20.6411 154.328 21.6275C154.341 21.7198 154.356 21.8102 154.37 21.9044Z" fill="#373737"/>
<path d="M36.4342 45.6873H6.83569C3.06128 45.6873 0 42.5012 0 38.573V7.76636C0 3.83814 3.06128 0.6521 6.83569 0.6521H36.4342C40.2087 0.6521 43.2699 3.83814 43.2699 7.76636V38.5711C43.2699 42.5012 40.2105 45.6873 36.4342 45.6873Z" fill="url(#paint0_linear)"/>
<path d="M17.8375 37.6538H10.394C9.81569 37.6538 9.34644 37.1654 9.34644 36.5636C9.34644 35.9618 9.81569 35.4734 10.394 35.4734H17.8375C18.4157 35.4734 18.885 35.9618 18.885 36.5636C18.8832 37.1654 18.4157 37.6538 17.8375 37.6538Z" fill="white"/>
<path d="M17.6436 33.739H10.2001C9.62185 33.739 9.15259 33.2506 9.15259 32.6488C9.15259 32.047 9.62185 31.5586 10.2001 31.5586H17.6436C18.2219 31.5586 18.6912 32.047 18.6912 32.6488C18.6893 33.2526 18.2219 33.739 17.6436 33.739Z" fill="white"/>
<path d="M17.6436 29.8262H10.2001C9.62185 29.8262 9.15259 29.3378 9.15259 28.736C9.15259 28.1341 9.62185 27.6458 10.2001 27.6458H17.6436C18.2219 27.6458 18.6912 28.1341 18.6912 28.736C18.6893 29.3378 18.2219 29.8262 17.6436 29.8262Z" fill="white"/>
<path d="M17.6436 25.9131H10.2001C9.62185 25.9131 9.15259 25.4247 9.15259 24.8229C9.15259 24.2211 9.62185 23.7327 10.2001 23.7327H17.6436C18.2219 23.7327 18.6912 24.2211 18.6912 24.8229C18.6893 25.4247 18.2219 25.9131 17.6436 25.9131Z" fill="white"/>
<path d="M17.6436 22.0003H10.2001C9.62185 22.0003 9.15259 21.5119 9.15259 20.91C9.15259 20.3082 9.62185 19.8198 10.2001 19.8198H17.6436C18.2219 19.8198 18.6912 20.3082 18.6912 20.91C18.6893 21.5119 18.2219 22.0003 17.6436 22.0003Z" fill="white"/>
<path d="M17.6436 18.0857H10.2001C9.62185 18.0857 9.15259 17.5973 9.15259 16.9955C9.15259 16.3937 9.62185 15.9053 10.2001 15.9053H17.6436C18.2219 15.9053 18.6912 16.3937 18.6912 16.9955C18.6893 17.5992 18.2219 18.0857 17.6436 18.0857Z" fill="white"/>
<path d="M17.6436 14.6575H10.2001C9.62185 14.6575 9.15259 14.1691 9.15259 13.5673C9.15259 12.9654 9.62185 12.4771 10.2001 12.4771H17.6436C18.2219 12.4771 18.6912 12.9654 18.6912 13.5673C18.6893 14.1691 18.2219 14.6575 17.6436 14.6575Z" fill="white"/>
<path d="M17.6436 10.866H10.2001C9.62185 10.866 9.15259 10.3776 9.15259 9.77575C9.15259 9.17393 9.62185 8.68555 10.2001 8.68555H17.6436C18.2219 8.68555 18.6912 9.17393 18.6912 9.77575C18.6893 10.3776 18.2219 10.866 17.6436 10.866Z" fill="white"/>
<path d="M28.6529 10.8657H21.2094C20.6311 10.8657 20.1619 10.3773 20.1619 9.77551C20.1619 9.17368 20.6311 8.6853 21.2094 8.6853H28.6529C29.2312 8.6853 29.7004 9.17368 29.7004 9.77551C29.6986 10.3773 29.2312 10.8657 28.6529 10.8657Z" fill="white"/>
<path d="M33.0721 14.6575H25.6286C25.0503 14.6575 24.5811 14.1691 24.5811 13.5673C24.5811 12.9654 25.0503 12.4771 25.6286 12.4771H33.0721C33.6504 12.4771 34.1196 12.9654 34.1196 13.5673C34.1178 14.1691 33.6485 14.6575 33.0721 14.6575Z" fill="white"/>
<path d="M33.0721 18.2473H25.6286C25.0503 18.2473 24.5811 17.7589 24.5811 17.1571C24.5811 16.5553 25.0503 16.0669 25.6286 16.0669H33.0721C33.6504 16.0669 34.1196 16.5553 34.1196 17.1571C34.1178 17.7609 33.6485 18.2473 33.0721 18.2473Z" fill="white"/>
<path d="M33.0721 22.0003H25.6286C25.0503 22.0003 24.5811 21.5119 24.5811 20.91C24.5811 20.3082 25.0503 19.8198 25.6286 19.8198H33.0721C33.6504 19.8198 34.1196 20.3082 34.1196 20.91C34.1178 21.5119 33.6485 22.0003 33.0721 22.0003Z" fill="white"/>
<path d="M28.6529 25.9131H21.2094C20.6311 25.9131 20.1619 25.4247 20.1619 24.8229C20.1619 24.2211 20.6311 23.7327 21.2094 23.7327H28.6529C29.2312 23.7327 29.7004 24.2211 29.7004 24.8229C29.6986 25.4247 29.2312 25.9131 28.6529 25.9131Z" fill="white"/>
<defs>
<linearGradient id="paint0_linear" x1="4.85502" y1="39.6852" x2="36.914" y2="10.5554" gradientUnits="userSpaceOnUse">
<stop stop-color="#209DD8"/>
<stop offset="1" stop-color="#68CEF5"/>
</linearGradient>
</defs>
</svg>
